<svg width="32" height="32" xmlns="http://www.w3.org/2000/svg" xmlns:svg="http://www.w3.org/2000/svg"><g><title>Layer 1</title><path stroke="#000000" fill="#000000" stroke-width="0" stroke-dasharray="null" stroke-linejoin="null" stroke-linecap="null" d="m15.999999,0c-8.781429,0 -15.899999,7.096184 -15.899999,15.849999c0,8.753814 7.11857,15.849999 15.899999,15.849999c8.781429,0 15.899999,-7.096184 15.899999,-15.849999c0,-8.753814 -7.11857,-15.849999 -15.899999,-15.849999zm1.452814,24.978961l-2.961422,0l0,-2.831058l2.961422,0l0,2.831058zm0,-5.854052l0,0.935689l-2.961422,0l0,-1.152707c0,-3.478842 3.971171,-4.030659 3.971171,-6.502927c0,-1.127625 -1.010843,-1.991338 -2.334567,-1.991338c-1.371859,0 -2.575245,1.007665 -2.575245,1.007665l-1.685833,-2.088396c0,0 1.661765,-1.727425 4.525822,-1.727425c2.720744,0 5.24676,1.679441 5.24676,4.5105c0.001094,3.960864 -4.186686,4.417803 -4.186686,7.008941l0,-0.000001z" id="svg_1"/></g></svg>