<svg width="32" height="32" xmlns="http://www.w3.org/2000/svg" xmlns:svg="http://www.w3.org/2000/svg">
 <g>
  <title>Layer 1</title>
  <path stroke="#000000" id="svg_2" d="m15.97383,0.17333c-8.781429,0 -15.9,7.051414 -15.9,15.75c0,8.698586 7.11857,15.75 15.9,15.75c8.781429,0 15.9,-7.051414 15.9,-15.75c0,-8.698586 -7.11857,-15.75 -15.9,-15.75zm9.174171,14.631657c-1.587374,1.808638 -4.054314,2.406822 -6.219313,1.718694l-7.863575,8.957582c-0.837994,0.953626 -2.296278,1.051156 -3.258986,0.222152s-1.064449,-2.274615 -0.227549,-3.228241l7.874515,-8.967335c-0.97693,-2.021037 -0.718749,-4.512385 0.860967,-6.31127c1.49548,-1.706774 3.777535,-2.330965 5.85064,-1.814057l-3.012839,3.480735l0.985682,2.840288l2.977831,0.573259l3.020497,-3.489404c0.818302,1.96577 0.517456,4.304321 -0.98787,6.017597z" stroke-linecap="null" stroke-linejoin="null" stroke-dasharray="null" stroke-width="0" fill="#000000"/>
 </g>
</svg>